# Blender v2.79 (sub 0) OBJ File: 'axe.blend'
# www.blender.org
mtllib axe.mtl
o Plane
v -1.211196 0.818541 0.078949
v -0.066244 1.150619 0.033978
v -1.211196 1.876470 0.088845
v -0.066244 1.544968 0.037667
v -0.162473 -2.676013 0.113714
v -0.162473 0.719188 0.113714
v -0.162473 -2.676014 -0.113714
v -0.162473 0.719188 -0.113714
v 0.048449 -2.660707 0.118169
v 0.048449 0.734494 0.118169
v 0.048449 -2.660708 -0.109258
v 0.048449 0.734494 -0.109258
v -0.162473 1.885358 0.113714
v -0.162473 1.885358 -0.113714
v 0.048449 1.900664 -0.109258
v 0.048449 1.900664 0.118169
v -1.211196 1.877389 -0.064444
v -1.211196 0.819460 -0.074340
v -0.066244 1.150961 -0.023161
v -0.066244 1.545311 -0.019473
v -1.347753 1.876929 0.012201
v -1.347753 0.819000 0.002305
vn 0.0420 -0.0093 0.9991
vn -1.0000 0.0000 -0.0000
vn 0.0211 -0.0000 -0.9998
vn 1.0000 -0.0000 0.0000
vn -0.0211 0.0000 0.9998
vn 0.0724 -0.9974 0.0000
vn -0.0724 0.9974 0.0000
vn 0.0420 0.0093 -0.9991
vn 0.2783 0.9605 0.0058
vn 0.2783 -0.9605 -0.0058
vn -0.4894 -0.0082 0.8720
vn 0.0000 -1.0000 -0.0060
vn -0.0000 1.0000 0.0060
vn -0.4894 0.0082 -0.8720
usemtl None
s off
f 1//1 2//1 4//1 3//1
f 5//2 6//2 8//2 7//2
f 7//3 8//3 12//3 11//3
f 11//4 12//4 10//4 9//4
f 9//5 10//5 6//5 5//5
f 7//6 11//6 9//6 5//6
f 8//2 6//2 13//2 14//2
f 15//7 14//7 13//7 16//7
f 6//5 10//5 16//5 13//5
f 12//3 8//3 14//3 15//3
f 10//4 12//4 15//4 16//4
f 18//8 17//8 20//8 19//8
f 4//9 20//9 17//9 3//9
f 1//10 18//10 19//10 2//10
f 2//4 19//4 20//4 4//4
f 1//11 3//11 21//11 22//11
f 18//12 1//12 22//12
f 3//13 17//13 21//13
f 17//14 18//14 22//14 21//14
