# Blender v2.79 (sub 0) OBJ File: ''
# www.blender.org
mtllib pompom.mtl
o Cube.000_Cube.008
v -0.279338 -0.197375 -0.034887
v 0.251909 0.239593 0.175393
v -0.216692 -0.248628 -0.086649
v 0.314555 0.188339 0.123632
v -0.295800 -0.140831 -0.110799
v 0.235447 0.296136 0.099482
v -0.233154 -0.192085 -0.162560
v 0.298094 0.244883 0.047720
v -0.229112 -0.063389 -0.245124
v 0.148483 0.029624 0.359981
v -0.148759 -0.088542 -0.291400
v 0.228836 0.004471 0.313705
v -0.213936 0.028501 -0.268719
v 0.163659 0.121513 0.336386
v -0.133583 0.003347 -0.314994
v 0.244013 0.096360 0.290111
v -0.156933 0.343281 0.010508
v 0.192822 -0.266848 0.161489
v -0.225857 0.292874 -0.033529
v 0.123898 -0.317256 0.117452
v -0.108998 0.350227 -0.072466
v 0.240757 -0.259903 0.078515
v -0.177922 0.299820 -0.116503
v 0.171833 -0.310310 0.034478
v -0.026718 0.202478 -0.290876
v -0.076273 -0.218998 0.289886
v 0.065677 0.178047 -0.300723
v 0.016123 -0.243429 0.280040
v -0.001223 0.276400 -0.235053
v -0.050777 -0.145075 0.345709
v 0.091173 0.251969 -0.244900
v 0.041618 -0.169507 0.335862
v 0.337011 0.103913 -0.110574
v -0.268269 -0.194499 0.138359
v 0.335039 0.167771 -0.038818
v -0.270242 -0.130641 0.210115
v 0.285142 0.163612 -0.165129
v -0.320139 -0.134800 0.083804
v 0.283169 0.227471 -0.093373
v -0.322111 -0.070941 0.155560
v -0.029801 -0.044755 -0.329244
v -0.064773 0.009285 0.387163
v 0.064982 -0.059387 -0.323513
v 0.030010 -0.005346 0.392893
v -0.014797 0.049926 -0.335654
v -0.049769 0.103966 0.380753
v 0.079986 0.035294 -0.329923
v 0.045013 0.089335 0.386484
v -0.343119 -0.032638 -0.095031
v 0.309659 0.008125 0.204304
v -0.303213 -0.058384 -0.178550
v 0.349565 -0.017621 0.120785
v -0.337138 0.059765 -0.120657
v 0.315640 0.100527 0.178677
v -0.297232 0.034019 -0.204176
v 0.355546 0.074782 0.095159
v -0.245689 0.177942 -0.199137
v 0.135088 -0.227743 0.256725
v -0.179787 0.163043 -0.267443
v 0.200990 -0.242642 0.188420
v -0.197722 0.255867 -0.169856
v 0.183056 -0.149817 0.286007
v -0.131820 0.240968 -0.238162
v 0.248957 -0.164716 0.217701
v -0.031490 0.305660 0.217691
v 0.069239 -0.342448 -0.077590
v -0.113750 0.315080 0.168955
v -0.013021 -0.333029 -0.126326
v 0.016290 0.346255 0.144890
v 0.117019 -0.301854 -0.150391
v -0.065971 0.355674 0.096154
v 0.034758 -0.292435 -0.199127
v 0.040384 0.342747 -0.130265
v -0.164586 -0.303684 0.109520
v 0.117476 0.302981 -0.171571
v -0.087494 -0.343450 0.068214
v 0.090762 0.356676 -0.049650
v -0.114207 -0.289755 0.190135
v 0.167854 0.316909 -0.090956
v -0.037115 -0.329521 0.148829
v 0.341318 0.053213 -0.118796
v -0.333092 -0.137564 0.042937
v 0.362331 0.058293 -0.025183
v -0.312079 -0.132484 0.136550
v 0.315347 0.145709 -0.117986
v -0.359063 -0.045067 0.043747
v 0.336360 0.150789 -0.024373
v -0.338050 -0.039987 0.137360
v -0.052772 0.182852 -0.298674
v -0.070992 -0.195667 0.312696
v 0.030013 0.140330 -0.322533
v 0.011793 -0.238189 0.288837
v -0.004074 0.252612 -0.254032
v -0.022294 -0.125907 0.357338
v 0.078711 0.210090 -0.277892
v 0.060491 -0.168429 0.333478
v -0.330886 0.136302 0.084009
v 0.298936 -0.198458 -0.008957
v -0.332872 0.158517 -0.009443
v 0.296949 -0.176243 -0.102408
v -0.284522 0.218386 0.102536
v 0.345299 -0.116374 0.009571
v -0.286508 0.240602 0.009084
v 0.343313 -0.094159 -0.083881
v -0.168430 0.328933 0.049716
v 0.047284 -0.356386 0.015264
v -0.139710 0.342531 -0.040954
v 0.076004 -0.342788 -0.075405
v -0.081392 0.354749 0.081157
v 0.134323 -0.330570 0.046706
v -0.052672 0.368347 -0.009512
v 0.163042 -0.316972 -0.043964
v 0.178425 0.104589 0.305256
v -0.150816 -0.214388 -0.249033
v 0.103822 0.164306 0.315203
v -0.225419 -0.154671 -0.239086
v 0.220032 0.166631 0.244838
v -0.109209 -0.152346 -0.309451
v 0.145429 0.226349 0.254785
v -0.183812 -0.092628 -0.299503
v 0.168082 0.328779 0.027323
v -0.274051 -0.238581 0.025585
v 0.199870 0.304275 -0.059968
v -0.242264 -0.263085 -0.061707
v 0.236876 0.275046 0.067459
v -0.205257 -0.292314 0.065720
v 0.268664 0.250542 -0.019833
v -0.173470 -0.316818 -0.021571
v 0.266234 0.027110 -0.244495
v -0.342194 -0.029278 0.135003
v 0.309764 -0.033183 -0.183664
v -0.298663 -0.089572 0.195834
v 0.293276 0.101532 -0.190082
v -0.315152 0.045144 0.189416
v 0.336806 0.041239 -0.129250
v -0.271621 -0.015150 0.250247
v -0.033688 0.341808 -0.120070
v -0.090044 -0.311420 0.175731
v 0.005740 0.302867 -0.198554
v -0.050616 -0.350361 0.097247
v 0.053602 0.351873 -0.081213
v -0.002754 -0.301355 0.214589
v 0.093030 0.312932 -0.159697
v 0.036674 -0.340296 0.136105
v -0.338983 -0.213029 0.000044
v 0.370161 0.193837 0.151326
v -0.303597 -0.236554 -0.102563
v 0.405547 0.170312 0.048719
v -0.384913 -0.119077 -0.037336
v 0.324231 0.287788 0.113946
v -0.349526 -0.142602 -0.139943
v 0.359618 0.264264 0.011339
v -0.368297 0.032112 -0.159527
v 0.322412 -0.123694 0.276314
v -0.308589 0.034982 -0.253124
v 0.382119 -0.120824 0.182716
v -0.352262 0.141165 -0.145954
v 0.338446 -0.014641 0.289887
v -0.292554 0.144035 -0.239551
v 0.398154 -0.011771 0.196289
v -0.123738 0.344038 0.238151
v 0.240280 -0.336548 -0.071050
v -0.222814 0.305813 0.205647
v 0.141203 -0.374772 -0.103555
v -0.111346 0.395113 0.140317
v 0.252671 -0.285472 -0.168884
v -0.210422 0.356889 0.107813
v 0.153595 -0.323697 -0.201389
v -0.144934 0.351288 -0.174174
v 0.023494 -0.371722 0.200259
v -0.055461 0.338689 -0.238748
v 0.112967 -0.384320 0.135685
v -0.083109 0.404661 -0.098923
v 0.085319 -0.318348 0.275510
v 0.006363 0.392063 -0.163496
v 0.174791 -0.330947 0.210937
v 0.309415 0.195050 -0.222641
v -0.246017 -0.291363 0.159731
v 0.348623 0.227798 -0.124030
v -0.206809 -0.258616 0.258342
v 0.236666 0.278957 -0.221580
v -0.318766 -0.207457 0.160793
v 0.275874 0.311704 -0.122969
v -0.279558 -0.174709 0.259404
v -0.196047 0.109711 -0.324775
v 0.108692 -0.177280 0.393613
v -0.095598 0.100212 -0.371180
v 0.209142 -0.186779 0.347207
v -0.171822 0.213510 -0.293584
v 0.132918 -0.073481 0.424803
v -0.071372 0.204010 -0.339990
v 0.233367 -0.082981 0.378398
v -0.414135 -0.017281 0.050690
v 0.416298 -0.057663 0.042784
v -0.414388 -0.000991 -0.059167
v 0.416044 -0.041373 -0.067072
v -0.408644 0.092443 0.066947
v 0.421788 0.052061 0.059041
v -0.408898 0.108733 -0.042910
v 0.421534 0.068351 -0.050815
v -0.334983 0.262090 0.004828
v 0.228906 -0.345996 0.064587
v -0.299510 0.284888 -0.097913
v 0.264379 -0.323198 -0.038154
v -0.261481 0.334318 0.046233
v 0.302408 -0.273768 0.105992
v -0.226008 0.357116 -0.056508
v 0.337881 -0.250970 0.003251
v 0.100307 0.217419 0.356655
v -0.010434 -0.313452 -0.273602
v -0.007728 0.243024 0.354070
v -0.118469 -0.287847 -0.276187
v 0.121367 0.298967 0.284266
v 0.010626 -0.231904 -0.345991
v 0.013332 0.324572 0.281681
v -0.097409 -0.206299 -0.348576
v 0.017610 0.428265 0.011373
v -0.163831 -0.382881 0.032161
v 0.074446 0.413137 -0.082832
v -0.106994 -0.398009 -0.062044
v 0.109892 0.409128 0.070123
v -0.071548 -0.402018 0.090911
v 0.166729 0.394001 -0.024082
v -0.014712 -0.417145 -0.003294
v 0.303955 0.146127 -0.256202
v -0.351809 -0.192104 0.127052
v 0.370403 0.108862 -0.175394
v -0.285362 -0.229369 0.207860
v 0.288260 0.240488 -0.199781
v -0.367505 -0.097743 0.183473
v 0.354707 0.203224 -0.118973
v -0.301057 -0.135007 0.264281
v -0.178318 0.332033 -0.178373
v 0.042529 -0.357595 0.230224
v -0.107680 0.306234 -0.260095
v 0.113167 -0.383393 0.148501
v -0.097857 0.388453 -0.126637
v 0.122990 -0.301175 0.281960
v -0.027220 0.362654 -0.208359
v 0.193628 -0.326973 0.200237
v -0.297128 0.076065 0.293099
v 0.280319 -0.174120 -0.250291
v -0.340213 0.143630 0.216206
v 0.237234 -0.106556 -0.327184
v -0.229834 0.157626 0.327059
v 0.347612 -0.092560 -0.216332
v -0.272919 0.225190 0.250166
v 0.304527 -0.024995 -0.293225
v -0.119220 0.309296 0.273905
v 0.008231 -0.374212 -0.182038
v -0.129800 0.369273 0.181036
v -0.002349 -0.314235 -0.274907
v -0.009986 0.329333 0.274401
v 0.117465 -0.354175 -0.181541
v -0.020566 0.389310 0.181532
v 0.106885 -0.294198 -0.274410
v 0.337350 -0.016272 0.245558
v -0.306182 -0.117452 -0.271104
v 0.270883 0.034931 0.318319
v -0.372649 -0.066248 -0.198344
v 0.360314 0.081346 0.197838
v -0.283219 -0.019833 -0.318824
v 0.293847 0.132550 0.270599
v -0.349685 0.031370 -0.246063
v 0.223702 0.350255 0.093059
v -0.310149 -0.284553 0.035332
v 0.213309 0.368906 -0.015927
v -0.320542 -0.265902 -0.073654
v 0.308207 0.281000 0.073149
v -0.225644 -0.353808 0.015422
v 0.297814 0.299651 -0.035837
v -0.236037 -0.335157 -0.093564
v 0.163175 0.171677 -0.351507
v -0.305215 -0.123019 0.269038
v 0.230029 0.083409 -0.342964
v -0.238360 -0.211288 0.277581
v 0.226025 0.226386 -0.278086
v -0.242364 -0.068311 0.342459
v 0.292879 0.138117 -0.269543
v -0.175510 -0.156579 0.351002
v -0.055529 0.415725 0.055697
v -0.055529 -0.415725 0.055697
v -0.055529 0.415725 -0.055361
v -0.055529 -0.415725 -0.055360
v 0.055529 0.415725 0.055697
v 0.055529 -0.415725 0.055697
v 0.055529 0.415725 -0.055361
v 0.055529 -0.415725 -0.055360
vn 0.1713 -0.5885 0.7901
vn 0.6520 -0.5335 -0.5388
vn -0.1713 0.5885 -0.7901
vn -0.6520 0.5335 0.5388
vn -0.7386 -0.6075 -0.2923
vn 0.7386 0.6075 0.2923
vn -0.1580 -0.9564 0.2456
vn 0.8363 -0.2618 -0.4817
vn 0.1580 0.9564 -0.2456
vn -0.8363 0.2618 0.4817
vn -0.5250 -0.1293 -0.8413
vn 0.5250 0.1293 0.8412
vn -0.4989 -0.0723 0.8636
vn -0.7174 -0.5247 -0.4584
vn 0.4989 0.0723 -0.8636
vn 0.7174 0.5247 0.4584
vn -0.4862 0.8482 -0.2099
vn 0.4862 -0.8482 0.2099
vn -0.2654 -0.7694 -0.5810
vn 0.9617 -0.2543 -0.1025
vn 0.2654 0.7694 0.5810
vn -0.9617 0.2543 0.1025
vn 0.0689 0.5860 -0.8074
vn -0.0689 -0.5860 0.8074
vn 0.5399 -0.6214 0.5678
vn -0.0205 0.6647 0.7469
vn -0.5399 0.6214 -0.5678
vn 0.0205 -0.6647 -0.7469
vn 0.8415 0.4149 -0.3461
vn -0.8415 -0.4149 0.3461
vn -0.1562 -0.9855 0.0667
vn 0.9865 -0.1523 0.0596
vn 0.1562 0.9855 -0.0667
vn -0.9865 0.1523 -0.0596
vn 0.0486 -0.0751 -0.9960
vn -0.0486 0.0751 0.9960
vn -0.0623 -0.9618 0.2667
vn 0.4154 -0.2680 -0.8693
vn 0.0623 0.9618 -0.2667
vn -0.4154 0.2680 0.8693
vn -0.9075 -0.0567 -0.4162
vn 0.9075 0.0567 0.4162
vn -0.4993 -0.8111 -0.3048
vn 0.6859 -0.1551 -0.7110
vn 0.4993 0.8111 0.3048
vn -0.6859 0.1551 0.7110
vn -0.5294 0.5640 -0.6338
vn 0.5294 -0.5640 0.6338
vn -0.4973 -0.4225 0.7577
vn -0.8562 0.0980 -0.5073
vn 0.4973 0.4225 -0.7577
vn 0.8562 -0.0980 0.5073
vn -0.1400 0.9010 0.4105
vn 0.1400 -0.9010 -0.4105
vn -0.5244 -0.1450 -0.8391
vn 0.8024 -0.4139 -0.4299
vn 0.5244 0.1450 0.8391
vn -0.8024 0.4139 0.4299
vn 0.2850 0.8987 -0.3334
vn -0.2850 -0.8987 0.3334
vn 0.2703 -0.9627 -0.0084
vn 0.2187 0.0529 0.9744
vn -0.2703 0.9627 0.0084
vn -0.2187 -0.0529 -0.9744
vn 0.9376 0.2652 -0.2249
vn -0.9376 -0.2652 0.2249
vn -0.5069 -0.7261 -0.4646
vn 0.8617 -0.4426 -0.2483
vn 0.5069 0.7261 0.4646
vn -0.8617 0.4426 0.2483
vn 0.0253 0.5262 -0.8500
vn -0.0253 -0.5262 0.8500
vn -0.4826 -0.8544 -0.1928
vn -0.0207 0.2312 -0.9727
vn 0.4826 0.8544 0.1928
vn 0.0207 -0.2312 0.9727
vn -0.8756 0.4654 0.1292
vn 0.8756 -0.4654 -0.1292
vn -0.9059 -0.2687 -0.3273
vn 0.2989 0.1415 -0.9437
vn 0.9059 0.2687 0.3273
vn -0.2989 -0.1415 0.9437
vn -0.2999 0.9528 0.0479
vn 0.2999 -0.9528 -0.0479
vn -0.4331 -0.6458 0.6288
vn -0.7765 0.6216 0.1035
vn 0.4331 0.6458 -0.6288
vn 0.7765 -0.6216 -0.1035
vn 0.4577 0.4435 0.7706
vn -0.4577 -0.4435 -0.7706
vn -0.7160 0.5593 -0.4177
vn 0.3309 -0.2550 -0.9086
vn 0.7160 -0.5593 0.4177
vn -0.3309 0.2550 0.9086
vn 0.6147 0.7888 0.0024
vn -0.6147 -0.7888 -0.0024
vn -0.2815 -0.7746 -0.5664
vn 0.4531 -0.6276 0.6332
vn 0.2815 0.7746 0.5664
vn -0.4531 0.6276 -0.6332
vn 0.8459 0.0784 -0.5276
vn -0.8459 -0.0784 0.5276
vn -0.9085 -0.1048 -0.4044
vn 0.4104 -0.4053 -0.8169
vn 0.9085 0.1048 0.4044
vn -0.4104 0.4053 0.8169
vn 0.0783 0.9082 -0.4112
vn -0.0783 -0.9082 0.4112
vn 0.4136 -0.8460 0.3366
vn 0.3186 -0.2118 -0.9239
vn -0.4136 0.8460 -0.3366
vn -0.3186 0.2118 0.9239
vn -0.8529 -0.4893 -0.1819
vn 0.8529 0.4893 0.1819
vn -0.1444 -0.9819 -0.1222
vn 0.5376 0.0258 -0.8428
vn 0.1444 0.9819 0.1222
vn -0.5376 -0.0258 0.8428
vn -0.8307 0.1874 -0.5242
vn 0.8307 -0.1874 0.5242
vn -0.1116 -0.4599 0.8809
vn -0.8921 -0.3442 -0.2927
vn 0.1116 0.4599 -0.8809
vn 0.8921 0.3442 0.2927
vn -0.4378 0.8186 0.3719
vn 0.4378 -0.8186 -0.3719
vn -0.5567 -0.4806 -0.6776
vn 0.8056 -0.1134 -0.5814
vn 0.5567 0.4806 0.6776
vn -0.8056 0.1134 0.5814
vn -0.2026 0.8696 -0.4503
vn 0.2026 -0.8696 0.4503
vn 0.6551 -0.7555 -0.0096
vn 0.3530 0.2949 0.8879
vn -0.6551 0.7555 0.0096
vn -0.3530 -0.2949 -0.8879
vn 0.6680 0.5850 -0.4599
vn -0.6680 -0.5850 0.4599
vn -0.2181 -0.9346 -0.2808
vn 0.9045 -0.0855 -0.4179
vn 0.2181 0.9346 0.2808
vn -0.9045 0.0855 0.4179
vn -0.3665 0.3452 -0.8640
vn 0.3665 -0.3452 0.8640
vn -0.0494 -0.9880 -0.1464
vn -0.0023 0.1467 -0.9892
vn 0.0494 0.9880 0.1464
vn 0.0023 -0.1467 0.9892
vn -0.9988 0.0486 0.0095
vn 0.9988 -0.0486 -0.0095
vn -0.6618 -0.6504 -0.3728
vn 0.3194 0.2053 -0.9251
vn 0.6618 0.6504 0.3728
vn -0.3194 -0.2053 0.9251
vn -0.6782 0.7314 -0.0719
vn 0.6782 -0.7314 0.0719
vn -0.1896 -0.7343 0.6518
vn -0.9728 0.2306 -0.0233
vn 0.1896 0.7343 -0.6518
vn 0.9728 -0.2306 0.0233
vn 0.1332 0.6385 0.7580
vn -0.1332 -0.6385 -0.7580
vn -0.8309 0.1723 -0.5290
vn 0.5118 -0.1362 -0.8483
vn 0.8309 -0.1723 0.5290
vn -0.5118 0.1362 0.8483
vn 0.2182 0.9756 -0.0250
vn -0.2182 -0.9756 0.0250
vn 0.1413 -0.8497 -0.5080
vn 0.5983 -0.3355 0.7276
vn -0.1413 0.8497 0.5080
vn -0.5983 0.3355 -0.7276
vn 0.7887 0.4068 -0.4609
vn -0.7887 -0.4068 0.4609
vn -0.7245 -0.5080 -0.4659
vn 0.6360 -0.2323 -0.7359
vn 0.7245 0.5080 0.4659
vn -0.6360 0.2323 0.7359
vn -0.2656 0.8294 -0.4914
vn 0.2656 -0.8294 0.4914
vn -0.6059 -0.7344 -0.3058
vn -0.3880 0.6084 -0.6924
vn 0.6059 0.7344 0.3058
vn 0.3880 -0.6084 0.6924
vn -0.6945 0.3009 0.6535
vn 0.6945 -0.3009 -0.6535
vn -0.9836 -0.1804 -0.0045
vn -0.0953 0.5401 -0.8362
vn 0.9836 0.1804 0.0045
vn 0.0953 -0.5401 0.8362
vn -0.1533 0.8221 0.5484
vn 0.1533 -0.8221 -0.5484
vn -0.2068 -0.8790 0.4297
vn -0.5985 0.4611 0.6552
vn 0.2068 0.8790 -0.4297
vn 0.5985 -0.4611 -0.6552
vn 0.7740 0.1217 0.6214
vn -0.7740 -0.1217 -0.6214
vn -0.7609 0.6236 0.1793
vn -0.0936 0.1679 -0.9813
vn 0.7609 -0.6236 -0.1793
vn 0.0936 -0.1679 0.9813
vn 0.6421 0.7635 0.0694
vn -0.6421 -0.7635 -0.0694
vn -0.5659 -0.4926 -0.6611
vn 0.6020 -0.7948 0.0769
vn 0.5659 0.4926 0.6611
vn -0.6020 0.7948 -0.0769
vn 0.5633 0.3544 -0.7463
vn -0.5633 -0.3544 0.7463
vn -1.0000 -0.0000 0.0000
vn -0.0000 -0.0000 -1.0000
vn 1.0000 0.0000 0.0000
vn 0.0000 0.0000 1.0000
vn 0.0000 1.0000 0.0000
vn 0.0000 -1.0000 0.0000
usemtl None
s off
f 1//1 3//1 4//1 2//1
f 3//2 7//2 8//2 4//2
f 7//3 5//3 6//3 8//3
f 5//4 1//4 2//4 6//4
f 3//5 1//5 5//5 7//5
f 8//6 6//6 2//6 4//6
f 9//7 11//7 12//7 10//7
f 11//8 15//8 16//8 12//8
f 15//9 13//9 14//9 16//9
f 13//10 9//10 10//10 14//10
f 11//11 9//11 13//11 15//11
f 16//12 14//12 10//12 12//12
f 17//13 19//13 20//13 18//13
f 19//14 23//14 24//14 20//14
f 23//15 21//15 22//15 24//15
f 21//16 17//16 18//16 22//16
f 19//17 17//17 21//17 23//17
f 24//18 22//18 18//18 20//18
f 25//19 27//19 28//19 26//19
f 27//20 31//20 32//20 28//20
f 31//21 29//21 30//21 32//21
f 29//22 25//22 26//22 30//22
f 27//23 25//23 29//23 31//23
f 32//24 30//24 26//24 28//24
f 33//25 35//25 36//25 34//25
f 35//26 39//26 40//26 36//26
f 39//27 37//27 38//27 40//27
f 37//28 33//28 34//28 38//28
f 35//29 33//29 37//29 39//29
f 40//30 38//30 34//30 36//30
f 41//31 43//31 44//31 42//31
f 43//32 47//32 48//32 44//32
f 47//33 45//33 46//33 48//33
f 45//34 41//34 42//34 46//34
f 43//35 41//35 45//35 47//35
f 48//36 46//36 42//36 44//36
f 49//37 51//37 52//37 50//37
f 51//38 55//38 56//38 52//38
f 55//39 53//39 54//39 56//39
f 53//40 49//40 50//40 54//40
f 51//41 49//41 53//41 55//41
f 56//42 54//42 50//42 52//42
f 57//43 59//43 60//43 58//43
f 59//44 63//44 64//44 60//44
f 63//45 61//45 62//45 64//45
f 61//46 57//46 58//46 62//46
f 59//47 57//47 61//47 63//47
f 64//48 62//48 58//48 60//48
f 65//49 67//49 68//49 66//49
f 67//50 71//50 72//50 68//50
f 71//51 69//51 70//51 72//51
f 69//52 65//52 66//52 70//52
f 67//53 65//53 69//53 71//53
f 72//54 70//54 66//54 68//54
f 73//55 75//55 76//55 74//55
f 75//56 79//56 80//56 76//56
f 79//57 77//57 78//57 80//57
f 77//58 73//58 74//58 78//58
f 75//59 73//59 77//59 79//59
f 80//60 78//60 74//60 76//60
f 81//61 83//61 84//61 82//61
f 83//62 87//62 88//62 84//62
f 87//63 85//63 86//63 88//63
f 85//64 81//64 82//64 86//64
f 83//65 81//65 85//65 87//65
f 88//66 86//66 82//66 84//66
f 89//67 91//67 92//67 90//67
f 91//68 95//68 96//68 92//68
f 95//69 93//69 94//69 96//69
f 93//70 89//70 90//70 94//70
f 91//71 89//71 93//71 95//71
f 96//72 94//72 90//72 92//72
f 97//73 99//73 100//73 98//73
f 99//74 103//74 104//74 100//74
f 103//75 101//75 102//75 104//75
f 101//76 97//76 98//76 102//76
f 99//77 97//77 101//77 103//77
f 104//78 102//78 98//78 100//78
f 105//79 107//79 108//79 106//79
f 107//80 111//80 112//80 108//80
f 111//81 109//81 110//81 112//81
f 109//82 105//82 106//82 110//82
f 107//83 105//83 109//83 111//83
f 112//84 110//84 106//84 108//84
f 113//85 115//85 116//85 114//85
f 115//86 119//86 120//86 116//86
f 119//87 117//87 118//87 120//87
f 117//88 113//88 114//88 118//88
f 115//89 113//89 117//89 119//89
f 120//90 118//90 114//90 116//90
f 121//91 123//91 124//91 122//91
f 123//92 127//92 128//92 124//92
f 127//93 125//93 126//93 128//93
f 125//94 121//94 122//94 126//94
f 123//95 121//95 125//95 127//95
f 128//96 126//96 122//96 124//96
f 129//97 131//97 132//97 130//97
f 131//98 135//98 136//98 132//98
f 135//99 133//99 134//99 136//99
f 133//100 129//100 130//100 134//100
f 131//101 129//101 133//101 135//101
f 136//102 134//102 130//102 132//102
f 137//103 139//103 140//103 138//103
f 139//104 143//104 144//104 140//104
f 143//105 141//105 142//105 144//105
f 141//106 137//106 138//106 142//106
f 139//107 137//107 141//107 143//107
f 144//108 142//108 138//108 140//108
f 145//109 147//109 148//109 146//109
f 147//110 151//110 152//110 148//110
f 151//111 149//111 150//111 152//111
f 149//112 145//112 146//112 150//112
f 147//113 145//113 149//113 151//113
f 152//114 150//114 146//114 148//114
f 153//115 155//115 156//115 154//115
f 155//116 159//116 160//116 156//116
f 159//117 157//117 158//117 160//117
f 157//118 153//118 154//118 158//118
f 155//119 153//119 157//119 159//119
f 160//120 158//120 154//120 156//120
f 161//121 163//121 164//121 162//121
f 163//122 167//122 168//122 164//122
f 167//123 165//123 166//123 168//123
f 165//124 161//124 162//124 166//124
f 163//125 161//125 165//125 167//125
f 168//126 166//126 162//126 164//126
f 169//127 171//127 172//127 170//127
f 171//128 175//128 176//128 172//128
f 175//129 173//129 174//129 176//129
f 173//130 169//130 170//130 174//130
f 171//131 169//131 173//131 175//131
f 176//132 174//132 170//132 172//132
f 177//133 179//133 180//133 178//133
f 179//134 183//134 184//134 180//134
f 183//135 181//135 182//135 184//135
f 181//136 177//136 178//136 182//136
f 179//137 177//137 181//137 183//137
f 184//138 182//138 178//138 180//138
f 185//139 187//139 188//139 186//139
f 187//140 191//140 192//140 188//140
f 191//141 189//141 190//141 192//141
f 189//142 185//142 186//142 190//142
f 187//143 185//143 189//143 191//143
f 192//144 190//144 186//144 188//144
f 193//145 195//145 196//145 194//145
f 195//146 199//146 200//146 196//146
f 199//147 197//147 198//147 200//147
f 197//148 193//148 194//148 198//148
f 195//149 193//149 197//149 199//149
f 200//150 198//150 194//150 196//150
f 201//151 203//151 204//151 202//151
f 203//152 207//152 208//152 204//152
f 207//153 205//153 206//153 208//153
f 205//154 201//154 202//154 206//154
f 203//155 201//155 205//155 207//155
f 208//156 206//156 202//156 204//156
f 209//157 211//157 212//157 210//157
f 211//158 215//158 216//158 212//158
f 215//159 213//159 214//159 216//159
f 213//160 209//160 210//160 214//160
f 211//161 209//161 213//161 215//161
f 216//162 214//162 210//162 212//162
f 217//163 219//163 220//163 218//163
f 219//164 223//164 224//164 220//164
f 223//165 221//165 222//165 224//165
f 221//166 217//166 218//166 222//166
f 219//167 217//167 221//167 223//167
f 224//168 222//168 218//168 220//168
f 225//169 227//169 228//169 226//169
f 227//170 231//170 232//170 228//170
f 231//171 229//171 230//171 232//171
f 229//172 225//172 226//172 230//172
f 227//173 225//173 229//173 231//173
f 232//174 230//174 226//174 228//174
f 233//175 235//175 236//175 234//175
f 235//176 239//176 240//176 236//176
f 239//177 237//177 238//177 240//177
f 237//178 233//178 234//178 238//178
f 235//179 233//179 237//179 239//179
f 240//180 238//180 234//180 236//180
f 241//181 243//181 244//181 242//181
f 243//182 247//182 248//182 244//182
f 247//183 245//183 246//183 248//183
f 245//184 241//184 242//184 246//184
f 243//185 241//185 245//185 247//185
f 248//186 246//186 242//186 244//186
f 249//187 251//187 252//187 250//187
f 251//188 255//188 256//188 252//188
f 255//189 253//189 254//189 256//189
f 253//190 249//190 250//190 254//190
f 251//191 249//191 253//191 255//191
f 256//192 254//192 250//192 252//192
f 257//193 259//193 260//193 258//193
f 259//194 263//194 264//194 260//194
f 263//195 261//195 262//195 264//195
f 261//196 257//196 258//196 262//196
f 259//197 257//197 261//197 263//197
f 264//198 262//198 258//198 260//198
f 265//199 267//199 268//199 266//199
f 267//200 271//200 272//200 268//200
f 271//201 269//201 270//201 272//201
f 269//202 265//202 266//202 270//202
f 267//203 265//203 269//203 271//203
f 272//204 270//204 266//204 268//204
f 273//205 275//205 276//205 274//205
f 275//206 279//206 280//206 276//206
f 279//207 277//207 278//207 280//207
f 277//208 273//208 274//208 278//208
f 275//209 273//209 277//209 279//209
f 280//210 278//210 274//210 276//210
f 281//211 283//211 284//211 282//211
f 283//212 287//212 288//212 284//212
f 287//213 285//213 286//213 288//213
f 285//214 281//214 282//214 286//214
f 283//215 281//215 285//215 287//215
f 288//216 286//216 282//216 284//216
